<?xml version="1.0" encoding="UTF-8"?>
<svg width="1662px" height="1661px" viewBox="0 0 1662 1661" version="1.1" xmlns="http://www.w3.org/2000/svg" xmlns:xlink="http://www.w3.org/1999/xlink">
    <title>Slice 1</title>
    <g id="Page-1" stroke="none" stroke-width="1" fill="none" fill-rule="evenodd">
        <g id="CIRCLE" transform="translate(523.500000, 533.500000)" fill-rule="nonzero">
            <path d="M307.028733,614.03095 C160.567408,614.03095 34.5020759,510.569819 5.92916048,366.922654 C-22.643755,223.275488 54.2336884,79.4484447 189.546377,23.4002863 C324.859065,-32.647872 480.92059,14.6930229 562.290077,136.471207 C643.659564,258.249392 627.674514,420.547999 524.110733,524.11181 C466.663095,581.873924 388.494329,614.252376 307.028733,614.03095 L307.028733,614.03095 Z M307.028733,2.02981003 C138.851003,2.02981003 2.0287327,138.85207 2.0287327,307.02981 C2.0287327,475.20755 138.851003,612.02981 307.028733,612.02981 C475.206463,612.02981 612.028733,475.20754 612.028733,307.02981 C612.028733,138.85208 475.206463,2.02981003 307.028733,2.02981003 Z" id="Shape" fill="#3F3D56"></path>
            <path d="M332.887863,580.12967 C327.202793,601.1451 307.730153,614.16048 307.730153,614.16048 C307.730153,614.16048 297.474833,593.10312 303.159893,572.08769 C308.844953,551.07226 328.317613,538.05688 328.317613,538.05688 C328.317613,538.05688 338.572933,559.11424 332.887863,580.12967 Z" id="Path" fill="#F50057"></path>
            <path d="M281.169603,580.12967 C286.854673,601.1451 306.327313,614.16048 306.327313,614.16048 C306.327313,614.16048 316.582633,593.10312 310.897573,572.08769 C305.212513,551.07226 285.739853,538.05688 285.739853,538.05688 C285.739853,538.05688 275.484533,559.11424 281.169603,580.12967 Z" id="Path" fill="#F50057"></path>
            <path d="M289.523403,575.61323 C305.123313,590.79911 307.028733,614.14335 307.028733,614.14335 C307.028733,614.14335 283.641733,612.86641 268.041783,597.68052 C252.441833,582.49463 250.536463,559.1504 250.536463,559.1504 C250.536463,559.1504 273.923493,560.42734 289.523403,575.61323 Z" id="Path" fill="#3F3D56"></path>
            <path d="M324.534063,575.61323 C308.934153,590.79911 307.028733,614.14335 307.028733,614.14335 C307.028733,614.14335 330.415733,612.86641 346.015683,597.68052 C361.615633,582.49463 363.521003,559.1504 363.521003,559.1504 C363.521003,559.1504 340.133973,560.42734 324.534063,575.61323 Z" id="Path" fill="#3F3D56"></path>
            <path d="M281.169603,35.08769 C286.854673,14.07227 306.327313,1.05688003 306.327313,1.05688003 C306.327313,1.05688003 316.582633,22.11424 310.897573,43.12967 C305.212513,64.1451 285.739853,77.16046 285.739853,77.16046 C285.739853,77.16046 275.484533,56.10312 281.169603,35.08769 Z" id="Path" fill="#F50057"></path>
            <path d="M332.887863,35.08769 C327.202793,14.07227 307.730153,1.05688003 307.730153,1.05688003 C307.730153,1.05688003 297.474833,22.11424 303.159893,43.12967 C308.844953,64.1451 328.317613,77.16046 328.317613,77.16046 C328.317613,77.16046 338.572933,56.10312 332.887863,35.08769 Z" id="Path" fill="#F50057"></path>
            <path d="M324.534063,39.60414 C308.934153,24.41825 307.028733,1.07402003 307.028733,1.07402003 C307.028733,1.07402003 330.415733,2.35096003 346.015683,17.53684 C361.615633,32.72272 363.521003,56.06696 363.521003,56.06696 C363.521003,56.06696 340.133973,54.79002 324.534063,39.60414 Z" id="Path" fill="#3F3D56"></path>
            <path d="M289.523403,39.60414 C305.123313,24.41825 307.028733,1.07402003 307.028733,1.07402003 C307.028733,1.07402003 283.641733,2.35096003 268.041783,17.53684 C252.441833,32.72272 250.536463,56.06696 250.536463,56.06696 C250.536463,56.06696 273.923493,54.79002 289.523403,39.60414 Z" id="Path" fill="#3F3D56"></path>
        </g>
        <g id="LEFT" transform="translate(272.000000, 457.000000)" fill-rule="nonzero">
            <rect id="Rectangle" fill="#F50057" x="14.62796" y="12.67681" width="397.45533" height="404.16658"></rect>
            <polygon id="Path" fill="#3F3D56" points="397.065 22.935 43.003 22.935 22.935 22.935 22.935 44.437 22.935 401.365 43.003 401.365 43.003 44.437 397.065 44.437"></polygon>
            <polygon id="Path" fill="#000000" opacity="0.3" points="397.065 22.935 43.003 22.935 22.935 22.935 22.935 44.437 22.935 401.365 43.003 401.365 43.003 44.437 397.065 44.437"></polygon>
            <polygon id="Path" fill="#000000" opacity="0.1" points="339.727 44.437 323.959 44.437 43.003 44.437 43.003 96.041 323.959 96.041 323.959 401.365 397.065 401.365 397.065 44.437"></polygon>
            <path d="M0,0 L0,424.30034 L420,424.30034 L420,0 L0,0 Z M397.06485,401.36519 L22.93515,401.36519 L22.93515,22.93519 L397.06485,22.93519 L397.06485,401.36519 Z" id="Shape" fill="#3F3D56"></path>
            <path d="M179.61217,350.32582 C179.61217,350.32582 268.04268,373.47206 275.75809,388.90289 C283.4735,404.33372 307.21324,441.7238 307.21324,441.7238 L272.19713,469.61799 L237.77452,417.98407 L142.81558,375.25254 L179.61217,350.32582 Z" id="Path" fill="#2F2E41"></path>
            <path d="M219.37622,366.35014 C219.37622,366.35014 235.40054,390.08988 225.90465,391.87036 C216.40876,393.65084 208.69334,366.35014 208.69334,366.35014 L219.37622,366.35014 Z" id="Path" fill="#A0616A"></path>
            <path d="M98.30357,363.97617 C98.30357,363.97617 86.43371,398.99228 133.31968,408.48817 C180.20565,417.98406 194.4495,425.69948 194.4495,425.69948 L200.38443,486.23581 L241.33548,488.60981 C241.33548,488.60981 260.92076,396.61834 235.40054,384.74847 C209.88032,372.8786 155.87243,359.22825 155.87243,359.22825 L98.30357,363.97617 Z" id="Path" fill="#2F2E41"></path>
            <circle id="Oval" fill="#A0616A" cx="205.42913" cy="224.80197" r="23.73974"></circle>
            <path d="M186.14059,217.38328 C186.14059,217.38328 164.77483,232.8141 160.62038,233.4076 C156.46593,234.0011 180.20566,263.08228 180.20566,263.08228 C180.20566,263.08228 191.48203,244.68398 198.60395,242.31001 C205.72587,239.93604 186.14059,217.38328 186.14059,217.38328 Z" id="Path" fill="#A0616A"></path>
            <path d="M170.11627,236.96859 C170.11627,236.96859 161.21387,225.09872 155.87243,225.09872 C150.53099,225.09872 102.45803,230.44016 98.30357,270.20422 C94.14911,309.96828 96.52309,379.407 96.52309,379.407 C96.52309,379.407 92.96209,362.19569 132.72619,369.31761 C132.72619,369.31761 180.20566,359.22822 188.51457,359.22822 C196.82348,359.22822 200.38443,274.35867 200.38443,274.35867 L186.87128,253.40739 C186.87128,253.40739 180.79915,264.86278 170.11627,236.96859 Z" id="Path" fill="#D0CDE1"></path>
            <path d="M191.482,269.61072 L200.3844,274.35872 L211.06729,339.64299 L225.90462,373.47211 C225.90462,373.47211 209.8803,367.95553 208.69331,374.57153 L184.95358,340.23653 L191.482,269.61072 Z" id="Path" fill="#D0CDE1"></path>
            <path d="M200.09174,205.3327 L213.00674,206.94599 C212.76019,209.57416 212.82874,212.82999 215.15739,214.07319 C216.25212,214.65761 217.6412,214.62774 218.6115,215.40138 C220.94515,217.26204 218.66244,221.26331 219.97999,223.94138 L223.75723,224.94081 C224.673729,226.655677 226.236418,227.934117 228.098864,228.492714 C229.961311,229.051311 231.969641,228.843914 233.67863,227.9165 C236.21678,226.39239 237.5102,223.48044 238.65223,220.74898 C240.01667,217.48561 241.40913,213.97951 240.72614,210.50898 C239.99237,206.78035 236.94614,203.68167 236.80788,199.88398 C236.74604,198.1851 237.1048,196.0671 235.67265,195.15114 C235.013665,194.841441 234.30422,194.65315 233.57839,194.59531 C230.27894,193.90631 228.44181,190.49142 225.98124,188.18778 C220.82477,183.36016 212.90608,183.48692 205.85499,183.90795 C203.836559,183.915251 201.833941,184.264344 199.93209,184.94042 C197.782274,186.018603 195.881562,187.53425 194.35189,189.39013 C190.57047,193.42329 186.88889,197.64755 184.39438,202.5814 C181.89987,207.51525 180.67094,213.27987 182.02671,218.63967 C181.89319,218.12392 186.38123,214.74918 186.93971,214.20837 C188.69381,212.50977 188.85344,211.69862 189.80262,209.74421 C192.01529,205.18828 195.09209,204.70817 200.09174,205.3327 Z" id="Path" fill="#2F2E41"></path>
            <polygon id="Path" fill="#000000" opacity="0.1" points="162.104 281.777 163.885 323.322 190.284 354.281 166.259 319.761"></polygon>
            <polygon id="Path" fill="#000000" opacity="0.1" points="114.625 293.054 135.397 341.127 162.104 363.086 133.616 343.501"></polygon>
            <path d="M227.45753,332.01855 L240.00881,340.6523 C241.297295,341.667576 241.697504,343.447138 240.96775,344.9163 L239.2891,348.38043 L239.67783,348.64782 L237.77042,352.58404 L237.3817,352.31665 L223.55642,380.84702 C223.265663,381.60662 222.645328,382.19283 221.870508,382.440188 C221.095688,382.687547 220.250433,382.569221 219.57332,382.11861 L207.77819,374.00495 C206.296719,372.837596 205.836561,370.791496 206.6756,369.10227 L224.131,333.08055 C224.373829,332.446161 224.891907,331.95658 225.539005,331.749993 C226.186104,331.543406 226.892028,331.642222 227.45753,332.01855 Z" id="Path" fill="#3F3D56"></path>
            <polygon id="Path" fill="#FFFFFF" points="207.976 368.787 221.485 378.08 239.108 341.713 225.598 332.42"></polygon>
            <path d="M202.11036,360.78177 C202.11036,360.78177 225.65212,377.09556 217.44805,382.19805 C209.24398,387.30054 192.15449,364.65535 192.15449,364.65535 L202.11036,360.78177 Z" id="Path" fill="#A0616A"></path>
            <path d="M132.1327,239.93605 C132.1327,239.93605 101.27104,248.83845 110.17344,276.13915 C112.32092,282.72477 114.91737,289.79388 117.6212,296.73 C126.12613,318.54761 135.69366,339.04945 135.69366,339.04945 L162.519,363.30413 L198.604,373.47206 L202.75846,369.91106 C202.75846,369.91106 203.94546,358.63469 198.604,357.4477 C193.26254,356.26071 184.95366,351.51277 184.95366,351.51277 L163.58789,320.05762 C163.58789,320.05762 162.99435,241.71653 132.1327,239.93605 Z" id="Path" fill="#D0CDE1"></path>
            <path d="M294.74988,439.94328 C294.74988,439.94328 313.74167,476.73987 324.42455,485.04878 C335.10743,493.35769 307.21324,503.44707 307.21324,503.44707 L274.57111,452.40668 L294.74988,439.94328 Z" id="Path" fill="#A0616A"></path>
            <path d="M304.24578,488.60978 C304.24578,488.60978 295.93687,481.48786 293.5629,486.23578 C291.18893,490.9837 284.067,515.31695 284.067,515.31695 C284.067,515.31695 294.15639,524.81285 314.92866,518.87795 C314.92866,518.87795 320.2701,514.7235 328.579,518.87795 C336.8879,523.0324 367.74957,514.7235 366.56258,501.07315 C365.37559,487.4228 333.92045,488.60979 333.92045,488.60979 C333.92045,488.60979 320.67173,473.76666 318.98718,479.40779 C317.30263,485.04892 319.6766,485.64236 319.6766,485.64236 C319.6766,485.64236 308.99372,496.91869 304.24578,488.60978 Z" id="Path" fill="#2F2E41"></path>
            <path d="M202.75841,476.14642 L196.82347,525.99986 L225.90465,525.99986 C225.90465,525.99986 223.53065,487.42279 224.12417,482.67486 C224.71769,477.92693 202.75841,476.14642 202.75841,476.14642 Z" id="Path" fill="#A0616A"></path>
            <path d="M200.38443,518.28445 C200.38443,518.28445 208.69334,514.13 209.88033,514.13 C209.88033,514.13 215.09697,502.09775 224.65526,503.36593 L245.48993,533.71528 C245.48993,533.71528 276.94508,556.26803 254.98583,562.20296 C233.02658,568.13789 215.81526,563.38996 215.81526,563.38996 L206.91286,556.86153 C206.91286,556.86153 208.09986,550.3331 200.38443,551.52009 C200.38443,551.52009 184.36011,544.99166 184.95361,540.24371 C185.54711,535.49576 198.15335,514.82891 198.15335,514.82891 L200.38443,518.28445 Z" id="Path" fill="#2F2E41"></path>
        </g>
        <g id="RIGHT" transform="translate(983.000000, 757.491790)" fill-rule="nonzero">
            <rect id="Rectangle" fill="#F50057" transform="translate(201.724265, 209.646765) rotate(-180.000000) translate(-201.724265, -209.646765) " x="7.72821" y="12.37498" width="387.99211" height="394.54357"></rect>
            <polygon id="Path" fill="#3F3D56" points="22.389 22.38921 368.02 22.38921 387.611 22.38921 387.611 43.37921 387.611 391.80921 368.02 391.80921 368.02 43.37921 22.389 43.37921"></polygon>
            <polygon id="Path" fill="#000000" opacity="0.3" points="22.389 22.38921 368.02 22.38921 387.611 22.38921 387.611 43.37921 387.611 391.80921 368.02 391.80921 368.02 43.37921 22.389 43.37921"></polygon>
            <polygon id="Path" fill="#000000" opacity="0.1" points="78.362 43.37921 93.754 43.37921 368.02 43.37921 368.02 93.75421 93.754 93.75421 93.754 391.80921 22.389 391.80921 22.389 43.37921"></polygon>
            <path d="M0,0 L0,414.19795 L410,414.19795 L410,0 L0,0 Z M22.38908,22.38908 L387.61092,22.38908 L387.61092,391.80887 L22.38908,391.80887 L22.38908,22.38908 Z" id="Shape" fill="#3F3D56"></path>
            <path d="M239.57473,195.27739 C230.74593,180.35946 213.27886,179.66421 213.27886,179.66421 C213.27886,179.66421 196.2582,177.48763 185.33955,200.20783 C175.1625,221.38492 161.11687,241.83183 183.07832,246.78924 L187.04519,234.44255 L189.50186,247.70844 C192.628749,247.933336 195.765602,247.986947 198.89835,247.86903 C222.41728,247.1097 244.81552,248.09119 244.09435,239.65161 C243.13563,228.43237 248.06981,209.63143 239.57473,195.27739 Z" id="Path" fill="#2F2E41"></path>
            <polygon id="Path" fill="#A0616A" points="175.939 315.67821 174.081 349.11221 228.565 354.68421 230.423 320.01221 211.848 308.24921"></polygon>
            <path d="M322.36447,389.04628 C320.73055,373.25178 255.86475,366.08228 240.27586,364.58528 L234.447,361.18509 L232.58959,341.3727 C232.58959,341.3727 175.00984,336.4196 170.67588,335.80047 C166.34192,335.18134 162.62709,343.23011 162.62709,345.08752 C162.62709,346.42991 161.81709,356.0161 158.56416,361.69796 C151.53942,367.3426 130.12239,385.10334 130.12239,391.83238 C130.12239,399.88116 147.14867,501.11008 147.14867,501.11008 L149.00608,522.16074 L166.34192,525.25643 L165.10364,459.62789 C165.10364,459.62789 171.29501,421.86053 162.62709,411.3352 L162.62709,407.0012 C162.62709,407.0012 188.0503,400.37759 197.01052,393.16576 C199.60682,392.60784 206.90296,391.23334 210.93252,392.42869 C211.48511,392.75409 212.12228,393.0883 212.83052,393.42828 C212.921367,393.509944 213.006955,393.597275 213.08677,393.68975 L213.15668,393.58275 C224.74774,399.00806 254.48189,405.85118 266.64213,403.90553 C276.021045,402.473806 285.609435,404.217153 293.88413,408.85863 C287.07363,417.52655 292.02672,442.29203 292.02672,442.29203 L292.64586,495.53783 L301.31378,506.06316 L313.07738,506.06316 L313.07738,476.96375 C313.07738,476.96375 324.22188,407.00126 322.36447,389.04628 Z" id="Path" fill="#2F2E41"></path>
            <circle id="Oval" fill="#A0616A" cx="207.8241" cy="215.68789" r="20.43153"></circle>
            <path d="M195.44136,228.68976 C195.44136,228.68976 198.53705,242.31076 194.20309,243.54905 C190.7745,244.685303 187.458317,246.136145 184.29689,247.88305 L179.3438,263.98062 L179.3438,280.07819 L239.4001,286.88869 L241.25751,281.31646 L241.25751,273.26768 L234.447,260.88489 L231.35131,257.78921 C231.35131,257.78921 217.73031,242.92992 220.82598,228.68976 L195.44136,228.68976 Z" id="Path" fill="#A0616A"></path>
            <path d="M248.99672,277.91117 C248.99672,277.91117 250.85413,299.58096 248.99672,309.48717 C247.13931,319.39338 247.75845,334.25265 247.75845,334.25265 L234.13745,331.77611 L234.13745,298.34269 L237.23314,280.38769 L248.99672,277.91117 Z" id="Path" fill="#A0616A"></path>
            <circle id="Oval" fill="#2F2E41" cx="215.41665" cy="179.73978" r="12.62965"></circle>
            <path d="M201.45757,176.41618 C201.458202,169.956048 206.333562,164.53773 212.75778,163.85749 C212.316171,163.810702 211.87242,163.787003 211.42834,163.78649 C204.453177,163.78649 198.79869,169.440977 198.79869,176.41614 C198.79869,183.391303 204.453177,189.04579 211.42834,189.04579 C211.87242,189.045277 212.316171,189.021578 212.75778,188.97479 C206.33359,188.294558 201.458238,182.876283 201.45757,176.41618 L201.45757,176.41618 Z" id="Path" fill="#2F2E41"></path>
            <polygon id="Path" fill="#2F2E41" points="235.671 193.83921 218.415 184.80021 194.584 188.49821 189.654 210.27421 201.927 209.80221 205.356 201.80221 205.356 209.67021 211.019 209.45221 214.306 196.71521 216.36 210.27421 236.493 209.86321"></polygon>
            <path d="M165.37868,501.36916 C165.37868,501.36916 174.1643,505.50357 176.7483,507.05397 C179.3323,508.60437 189.6683,505.50357 187.60111,514.80597 C185.53392,524.10837 176.7483,532.89397 176.7483,532.89397 C176.7483,532.89397 172.61389,537.54517 172.61389,540.64597 C172.61389,543.74677 162.27789,567.5196 149.87466,566.48597 C137.47143,565.45234 139.53866,553.04915 139.53866,553.04915 L142.12266,539.61233 C142.12266,539.61233 147.29066,516.8731 148.32427,517.38991 C149.35788,517.90672 151.94188,521.52431 151.94188,521.52431 C151.94188,521.52431 164.86188,516.35638 165.37868,501.36916 Z" id="Path" fill="#D0CDE1"></path>
            <path d="M294.22826,485.89074 C294.22826,485.89074 285.44265,490.02514 282.85864,491.57554 C280.27463,493.12594 269.93864,490.02514 272.00583,499.32754 C274.07302,508.62994 282.85864,517.41554 282.85864,517.41554 C282.85864,517.41554 286.99305,522.06674 286.99305,525.16754 C286.99305,528.26834 297.32905,552.04117 309.73228,551.00754 C322.13551,549.97391 320.06828,537.57072 320.06828,537.57072 L317.48428,524.13391 C317.48428,524.13391 312.31628,501.39468 311.28267,501.91148 C310.24906,502.42828 307.66507,506.04588 307.66507,506.04588 C307.66507,506.04588 294.74506,500.87796 294.22826,485.89074 Z" id="Path" fill="#D0CDE1"></path>
            <path d="M226.11026,338.58317 L226.11026,333.66957 L225.01835,333.66957 L225.01835,331.48575 C225.018353,330.472176 224.615714,329.500114 223.899009,328.783408 C223.182305,328.066702 222.210244,327.66406 221.19667,327.66406 L208.09375,327.66406 C205.983089,327.66406 204.27206,329.375089 204.27206,331.48575 L204.27206,368.06475 C204.27206,370.175409 205.983091,371.88644 208.09375,371.88644 L221.19667,371.88644 C223.307325,371.88644 225.018344,370.175405 225.01835,368.06475 L225.01835,345.13463 L226.11026,345.13463 L226.11026,340.22103 L225.01835,340.22103 L225.01835,338.58317 L226.11026,338.58317 Z" id="Path" fill="#D0CDE1"></path>
            <circle id="Oval" fill="#3F3D56" cx="215.19116" cy="338.58317" r="2.18382"></circle>
            <path d="M160.46011,267.38583 L149.31565,313.20198 C149.31565,313.20198 144.98165,323.10818 154.88788,329.29955 C164.79411,335.49092 187.083,343.5397 187.083,343.5397 C187.083,343.5397 206.89539,370.7817 209.37194,359.63727 C211.84849,348.49284 194.51265,334.25264 194.51265,334.25264 L164.17494,315.05939 L175.93854,282.86426 L160.46011,267.38583 Z" id="Path" fill="#A0616A"></path>
            <path d="M240.94794,324.96559 C240.94794,324.96559 250.235,323.72731 249.61586,334.25264 C248.99672,344.77797 236.614,346.01625 236.614,346.01625 C236.614,346.01625 231.04175,369.54349 222.993,365.20949 C214.94425,360.87549 227.327,337.34832 227.327,337.34832 L237.85233,329.29954 L240.94794,324.96559 Z" id="Path" fill="#A0616A"></path>
            <path d="M181.20121,263.36149 L191.1074,242.92997 L171.295,249.74043 C171.295,249.74043 160.15053,255.31266 159.5314,268.31454 C158.91227,281.31642 173.77155,288.12693 173.77155,288.12693 C173.77155,288.12693 176.2481,306.70104 175.00983,309.17759 C173.77156,311.65414 175.00983,321.56033 175.00983,321.56033 C175.00983,321.56033 198.84661,315.05939 210.61021,323.10818 C222.37381,331.15697 231.97044,326.51343 231.97044,326.51343 C231.97044,326.51343 231.3513,311.035 236.30444,308.55843 C241.25758,306.08186 245.5915,294.31828 241.25754,286.88863 C241.25754,286.88863 251.16373,288.12691 250.5446,278.83985 C249.92547,269.55279 244.97236,261.50401 236.9236,257.78919 C228.87484,254.07437 227.98506,253.48084 227.98506,253.48084 L239.40015,274.50589 L239.40015,280.07813 C239.40015,280.07813 219.1922,267.17944 199.19923,266.10454 C192.67658,265.806119 186.271617,267.914522 181.20163,272.02904 L181.20126,272.02934 L181.20121,263.36149 Z" id="Path" fill="#2F2E41"></path>
        </g>
    </g>
</svg>